HIERARCHY
ROOT Hips
{
	OFFSET 0.000000 103.266502 0.000000
	CHANNELS 6 Xposition Yposition Zposition Xrotation Yrotation Zrotation 
	JOINT Spine
	{
		OFFSET -0.002400 12.777504 0.315300
		CHANNELS 3 Xrotation Yrotation Zrotation
		JOINT Spine1
		{
			OFFSET -0.002067 5.816869 0.032633
			CHANNELS 3 Xrotation Yrotation Zrotation
			JOINT Spine1_split
			{
				OFFSET -0.002067 5.816869 0.032633
				CHANNELS 3 Xrotation Yrotation Zrotation
				JOINT Spine2
				{
					OFFSET -0.002067 5.816869 0.032633
					CHANNELS 3 Xrotation Yrotation Zrotation
					JOINT Neck
					{
						OFFSET -0.003700 21.199493 -0.826900
						CHANNELS 3 Xrotation Yrotation Zrotation
						JOINT Head
						{
							OFFSET 0.000000 20.442200 4.834800
							CHANNELS 3 Xrotation Yrotation Zrotation
							JOINT HeadTop_End
							{
								OFFSET 0.000000 34.668396 4.968400
								CHANNELS 3 Xrotation Yrotation Zrotation
								End Site
								{
									OFFSET 0.000000 0.000000 0.000000
								}
							}
						}
					}
					JOINT LeftShoulder
					{
						OFFSET 3.288150 8.794197 -1.372250
						CHANNELS 3 Xrotation Yrotation Zrotation
						JOINT LeftShoulder_split
						{
							OFFSET 3.288150 8.794197 -1.372250
							CHANNELS 3 Xrotation Yrotation Zrotation
							JOINT LeftArm
							{
								OFFSET 11.953299 -2.279007 -0.146200
								CHANNELS 3 Xrotation Yrotation Zrotation
								JOINT LeftForeArm
								{
									OFFSET 18.448900 0.000000 0.000000
									CHANNELS 3 Xrotation Yrotation Zrotation
									JOINT LeftHand
									{
										OFFSET 29.527798 0.000000 0.000000
										CHANNELS 3 Xrotation Yrotation Zrotation
										JOINT LeftHandThumb1
										{
											OFFSET 10.739754 -2.369614 9.225399
											CHANNELS 3 Xrotation Yrotation Zrotation
											JOINT LeftHandThumb2
											{
												OFFSET 4.926170 -2.844131 2.844125
												CHANNELS 3 Xrotation Yrotation Zrotation
												JOINT LeftHandThumb3
												{
													OFFSET 4.614891 -2.664413 2.664409
													CHANNELS 3 Xrotation Yrotation Zrotation
													JOINT LeftHandThumb4
													{
														OFFSET 4.432465 -2.559082 2.559083
														CHANNELS 3 Xrotation Yrotation Zrotation
														End Site
														{
															OFFSET 0.000000 0.000000 0.000000
														}
													}
												}
											}
										}
										JOINT LeftHandIndex1
										{
											OFFSET 26.467674 0.187653 6.405298
											CHANNELS 3 Xrotation Yrotation Zrotation
											JOINT LeftHandIndex2
											{
												OFFSET 8.792900 0.000000 0.000000
												CHANNELS 3 Xrotation Yrotation Zrotation
												JOINT LeftHandIndex3
												{
													OFFSET 10.075203 0.000000 0.000000
													CHANNELS 3 Xrotation Yrotation Zrotation
													End Site
													{
														OFFSET 0.000000 0.000000 0.000000
													}
												}
											}
										}
										JOINT LeftHandMiddle1
										{
											OFFSET 25.764404 0.000000 0.000000
											CHANNELS 3 Xrotation Yrotation Zrotation
											JOINT LeftHandMiddle2
											{
												OFFSET 9.393974 0.000000 0.000000
												CHANNELS 3 Xrotation Yrotation Zrotation
												JOINT LeftHandMiddle3
												{
													OFFSET 10.771950 0.000000 0.000000
													CHANNELS 3 Xrotation Yrotation Zrotation
													End Site
													{
														OFFSET 0.000000 0.000000 0.000000
													}
												}
											}
										}
										JOINT LeftHandRing1
										{
											OFFSET 24.660927 0.144547 -6.225808
											CHANNELS 3 Xrotation Yrotation Zrotation
											JOINT LeftHandRing2
											{
												OFFSET 9.393799 0.000000 0.000000
												CHANNELS 3 Xrotation Yrotation Zrotation
												JOINT LeftHandRing3
												{
													OFFSET 9.928497 0.000000 0.000000
													CHANNELS 3 Xrotation Yrotation Zrotation
													End Site
													{
														OFFSET 0.000000 0.000000 0.000000
													}
												}
											}
										}
										JOINT LeftHandPinky1
										{
											OFFSET 23.655350 0.125290 -12.815412
											CHANNELS 3 Xrotation Yrotation Zrotation
											JOINT LeftHandPinky2
											{
												OFFSET 8.425102 0.000000 0.000000
												CHANNELS 3 Xrotation Yrotation Zrotation
												JOINT LeftHandPinky3
												{
													OFFSET 8.147003 0.000000 0.000000
													CHANNELS 3 Xrotation Yrotation Zrotation
													End Site
													{
														OFFSET 0.000000 0.000000 0.000000
													}
												}
											}
										}
									}
								}
							}
						}
					}
					JOINT RightShoulder
					{
						OFFSET -3.249400 8.794197 -1.372250
						CHANNELS 3 Xrotation Yrotation Zrotation
						JOINT RightShoulder_split
						{
							OFFSET -3.249400 8.794197 -1.372250
							CHANNELS 3 Xrotation Yrotation Zrotation
							JOINT RightArm
							{
								OFFSET -11.953299 -2.279007 -0.146200
								CHANNELS 3 Xrotation Yrotation Zrotation
								JOINT RightForeArm
								{
									OFFSET -18.448900 0.000000 0.000000
									CHANNELS 3 Xrotation Yrotation Zrotation
									JOINT RightHand
									{
										OFFSET -29.527802 0.000000 0.000000
										CHANNELS 3 Xrotation Yrotation Zrotation
										JOINT RightHandThumb1
										{
											OFFSET -10.739754 -2.369614 9.225399
											CHANNELS 3 Xrotation Yrotation Zrotation
											JOINT RightHandThumb2
											{
												OFFSET -4.926170 -2.844131 2.844125
												CHANNELS 3 Xrotation Yrotation Zrotation
												JOINT RightHandThumb3
												{
													OFFSET -4.614891 -2.664413 2.664409
													CHANNELS 3 Xrotation Yrotation Zrotation
													JOINT RightHandThumb4
													{
														OFFSET -4.432465 -2.559082 2.559083
														CHANNELS 3 Xrotation Yrotation Zrotation
														End Site
														{
															OFFSET 0.000000 0.000000 0.000000
														}
													}
												}
											}
										}
										JOINT RightHandIndex1
										{
											OFFSET -26.467674 0.187653 6.405298
											CHANNELS 3 Xrotation Yrotation Zrotation
											JOINT RightHandIndex2
											{
												OFFSET -8.792900 0.000000 0.000000
												CHANNELS 3 Xrotation Yrotation Zrotation
												JOINT RightHandIndex3
												{
													OFFSET -10.075203 0.000000 0.000000
													CHANNELS 3 Xrotation Yrotation Zrotation
													End Site
													{
														OFFSET 0.000000 0.000000 0.000000
													}
												}
											}
										}
										JOINT RightHandMiddle1
										{
											OFFSET -25.764404 0.000000 0.000000
											CHANNELS 3 Xrotation Yrotation Zrotation
											JOINT RightHandMiddle2
											{
												OFFSET -9.393974 0.000000 0.000000
												CHANNELS 3 Xrotation Yrotation Zrotation
												JOINT RightHandMiddle3
												{
													OFFSET -10.771950 0.000000 0.000000
													CHANNELS 3 Xrotation Yrotation Zrotation
													End Site
													{
														OFFSET 0.000000 0.000000 0.000000
													}
												}
											}
										}
										JOINT RightHandRing1
										{
											OFFSET -24.660927 0.144547 -6.225808
											CHANNELS 3 Xrotation Yrotation Zrotation
											JOINT RightHandRing2
											{
												OFFSET -9.393799 0.000000 0.000000
												CHANNELS 3 Xrotation Yrotation Zrotation
												JOINT RightHandRing3
												{
													OFFSET -9.928497 0.000000 0.000000
													CHANNELS 3 Xrotation Yrotation Zrotation
													End Site
													{
														OFFSET 0.000000 0.000000 0.000000
													}
												}
											}
										}
										JOINT RightHandPinky1
										{
											OFFSET -23.655350 0.125290 -12.815412
											CHANNELS 3 Xrotation Yrotation Zrotation
											JOINT RightHandPinky2
											{
												OFFSET -8.425102 0.000000 0.000000
												CHANNELS 3 Xrotation Yrotation Zrotation
												JOINT RightHandPinky3
												{
													OFFSET -8.147003 0.000000 0.000000
													CHANNELS 3 Xrotation Yrotation Zrotation
													End Site
													{
														OFFSET 0.000000 0.000000 0.000000
													}
												}
											}
										}
									}
								}
							}
						}
					}
				}
			}
		}
	}
	JOINT LeftUpLeg
	{
		OFFSET 11.394100 -6.187798 -0.413800
		CHANNELS 3 Xrotation Yrotation Zrotation
		JOINT LeftLeg
		{
			OFFSET 0.430247 -32.302673 3.732800
			CHANNELS 3 Xrotation Yrotation Zrotation
			JOINT LeftFoot
			{
				OFFSET -0.430247 -48.264931 -6.423300
				CHANNELS 3 Xrotation Yrotation Zrotation
				JOINT LeftToeBase
				{
					OFFSET 4.230900 -16.068199 23.438400
					CHANNELS 3 Xrotation Yrotation Zrotation
					JOINT LeftToe_End
					{
						OFFSET 4.510700 0.695400 19.974600
						CHANNELS 3 Xrotation Yrotation Zrotation
						End Site
						{
							OFFSET 0.000000 0.000000 0.000000
						}
					}
				}
			}
		}
	}
	JOINT RightUpLeg
	{
		OFFSET -11.333700 -6.187798 -0.413800
		CHANNELS 3 Xrotation Yrotation Zrotation
		JOINT RightLeg
		{
			OFFSET -0.430392 -32.302628 3.733000
			CHANNELS 3 Xrotation Yrotation Zrotation
			JOINT RightFoot
			{
				OFFSET 0.430392 -48.264973 -6.423500
				CHANNELS 3 Xrotation Yrotation Zrotation
				JOINT RightToeBase
				{
					OFFSET -4.230900 -16.068199 23.438400
					CHANNELS 3 Xrotation Yrotation Zrotation
					JOINT RightToe_End
					{
						OFFSET -4.510700 0.695400 19.974600
						CHANNELS 3 Xrotation Yrotation Zrotation
						End Site
						{
							OFFSET 0.000000 0.000000 0.000000
						}
					}
				}
			}
		}
	}
}
MOTION
Frames: 4
Frame Time: 0.016667
-3.910360 87.787621 80.982872 31.883699 14.237019 -6.440398 4.718221 -0.528161 1.460224 9.441402 0.085014 4.172059 0.000000 0.000000 0.000000 9.441396 0.085011 4.172061 -7.147109 0.629940 -0.577765 -4.884836 0.126167 2.445928 -0.000001 0.000000 -0.000000 3.345530 -20.374552 5.851156 0.000000 0.000000 0.000000 -45.404147 -21.632013 -43.071743 105.129582 -62.566240 117.849805 32.351693 22.518550 68.310525 -22.329914 -10.232697 -0.665750 -13.008743 33.638805 5.466832 0.000003 0.000006 0.000003 -0.000001 0.000000 -0.000001 -3.249114 -3.487659 -45.487690 -11.741050 -5.662309 -117.786312 0.000002 0.000000 0.000000 -1.607291 -1.437537 -44.852831 -8.864429 -8.229479 -108.221636 -0.000002 0.000000 -0.000001 1.621473 4.447402 -42.845234 -1.055332 -8.990363 -99.406334 -0.000000 0.000000 0.000001 2.581083 6.861468 -50.366378 0.502855 -8.788561 -83.370279 0.000000 0.000000 0.000001 1.512610 10.066763 -3.702966 0.000000 0.000000 0.000000 -39.856865 5.966717 40.669750 110.736634 51.476755 -131.206049 41.008562 -31.696108 -49.398793 -31.480578 10.386582 -14.209260 -13.008681 -33.638839 -5.466796 0.000000 -0.000005 0.000002 -0.000000 0.000001 0.000000 -3.485979 1.851563 32.874424 -8.875858 5.007767 106.188159 -0.000000 0.000000 0.000000 -2.051666 0.230829 37.937094 -6.364971 7.372378 96.576880 -0.000001 -0.000000 -0.000001 2.774046 -3.553480 41.587027 -1.339036 10.439953 83.973132 0.000000 0.000000 -0.000001 4.714841 -4.516895 49.238779 -1.408707 11.737788 71.641984 -0.000000 0.000000 -0.000000 -12.747147 8.288668 3.656633 27.268410 22.564756 1.261375 -24.214742 1.634784 -25.845564 -21.587016 -9.158584 6.716234 -0.000000 -0.000002 -0.000001 -81.089208 -8.289232 -4.603051 67.648120 -30.538011 -1.694435 -11.449289 -0.046621 -1.272138 -8.095331 8.380787 6.745999 0.000000 -0.000000 0.000000 
-3.949739 87.637619 81.186356 32.092484 14.242160 -6.487582 4.637269 -0.529551 1.463725 9.279511 0.081827 4.174584 0.000000 0.000000 0.000000 9.279510 0.081823 4.174588 -7.203871 0.623597 -0.573728 -4.979438 0.067744 2.427052 0.000000 0.000000 -0.000000 3.403887 -20.465914 6.046225 0.000000 0.000000 0.000000 -45.550750 -21.701374 -42.949220 104.319364 -62.881112 117.063213 32.170727 22.449010 68.336261 -22.329926 -10.232716 -0.665748 -13.008763 33.638805 5.466825 0.000005 0.000009 0.000005 -0.000002 0.000000 -0.000001 -3.249105 -3.487658 -45.487707 -11.741058 -5.662320 -117.786312 0.000001 0.000000 0.000000 -1.607300 -1.437546 -44.852831 -8.864465 -8.229492 -108.221656 0.000001 0.000001 0.000001 1.621488 4.447399 -42.845247 -1.055340 -8.990374 -99.406327 -0.000001 -0.000001 -0.000001 2.581075 6.861452 -50.366378 0.502845 -8.788561 -83.370266 -0.000001 -0.000000 -0.000001 1.519942 10.005075 -3.875170 0.000000 0.000000 0.000000 -40.127273 6.219995 40.746737 110.235258 51.780491 -130.620852 41.065782 -31.593965 -49.231980 -31.480581 10.386573 -14.209251 -13.008703 -33.638852 -5.466822 -0.000000 -0.000004 0.000003 -0.000001 -0.000001 0.000000 -3.485984 1.851574 32.874435 -8.875836 5.007749 106.188131 0.000001 -0.000000 0.000001 -2.051667 0.230809 37.937118 -6.364949 7.372392 96.576887 0.000000 -0.000000 -0.000001 2.774047 -3.553480 41.587062 -1.339062 10.439965 83.973160 -0.000000 0.000000 0.000002 4.714844 -4.516896 49.238820 -1.408725 11.737776 71.641991 0.000000 0.000000 -0.000001 -13.042310 8.262628 3.777642 27.659572 22.603726 1.268928 -24.224267 1.596572 -26.108721 -21.872110 -9.248324 6.754476 -0.000000 -0.000004 -0.000001 -81.517051 -8.386819 -4.654073 68.143384 -30.525884 -1.696503 -11.601449 -0.041547 -1.337594 -8.382353 8.330476 6.868443 -0.000000 -0.000000 -0.000000 
-3.985615 87.489532 81.386948 32.307734 14.252417 -6.538083 4.555376 -0.530737 1.469209 9.115779 0.078890 4.180707 0.000000 0.000000 0.000000 9.115800 0.078891 4.180704 -7.260799 0.622986 -0.571327 -5.077523 0.011021 2.406297 -0.000003 -0.000000 0.000000 3.462209 -20.556773 6.238193 0.000000 0.000000 0.000000 -45.726149 -21.783019 -42.867278 103.432444 -63.200396 116.209112 32.017980 22.348575 68.350714 -22.329919 -10.232721 -0.665744 -13.008764 33.638811 5.466836 0.000006 0.000005 0.000005 -0.000000 -0.000001 -0.000001 -3.249097 -3.487657 -45.487707 -11.741050 -5.662332 -117.786312 0.000003 0.000000 0.000000 -1.607303 -1.437550 -44.852821 -8.864459 -8.229465 -108.221622 -0.000000 0.000000 -0.000000 1.621478 4.447390 -42.845244 -1.055312 -8.990350 -99.406307 0.000001 0.000000 0.000001 2.581072 6.861454 -50.366378 0.502843 -8.788558 -83.370300 -0.000000 0.000000 -0.000000 1.527261 9.940851 -4.054029 0.000000 0.000000 0.000000 -40.408393 6.474589 40.823621 109.704081 52.094987 -130.008170 41.123828 -31.479563 -49.070015 -31.480574 10.386565 -14.209251 -13.008695 -33.638842 -5.466816 0.000002 -0.000006 0.000002 -0.000000 -0.000000 -0.000001 -3.485978 1.851575 32.874424 -8.875859 5.007754 106.188179 0.000000 0.000000 0.000002 -2.051661 0.230818 37.937108 -6.364977 7.372383 96.576887 -0.000001 -0.000000 0.000000 2.774049 -3.553479 41.587051 -1.339054 10.439967 83.973153 -0.000001 0.000000 0.000001 4.714847 -4.516901 49.238793 -1.408700 11.737782 71.641977 -0.000000 -0.000000 -0.000001 -13.345100 8.235514 3.897547 28.048336 22.643276 1.276299 -24.226474 1.558275 -26.371905 -22.156401 -9.346896 6.789941 0.000001 -0.000002 0.000001 -81.938788 -8.486161 -4.715329 68.621927 -30.506213 -1.697873 -11.755824 -0.039109 -1.392535 -8.650475 8.281844 6.979090 -0.000000 0.000000 0.000000 
-4.018291 87.341560 81.587082 32.525275 14.262065 -6.588316 4.473029 -0.532349 1.474381 8.951147 0.075000 4.186375 0.000000 0.000000 0.000000 8.951175 0.075009 4.186374 -7.318553 0.628102 -0.570275 -5.178917 -0.043943 2.385305 -0.000003 0.000000 -0.000000 3.520945 -20.647264 6.429789 0.000000 0.000000 0.000000 -45.923077 -21.869200 -42.821670 102.479257 -63.518314 115.301229 31.897318 22.218551 68.346466 -22.329912 -10.232714 -0.665740 -13.008763 33.638805 5.466850 0.000003 0.000005 0.000005 -0.000002 0.000001 -0.000000 -3.249096 -3.487657 -45.487704 -11.741038 -5.662320 -117.786312 0.000000 0.000000 0.000000 -1.607301 -1.437542 -44.852831 -8.864469 -8.229487 -108.221656 -0.000001 -0.000000 -0.000001 1.621481 4.447398 -42.845227 -1.055324 -8.990370 -99.406327 -0.000001 0.000000 -0.000000 2.581087 6.861471 -50.366361 0.502844 -8.788574 -83.370286 -0.000001 0.000001 0.000000 1.534760 9.876779 -4.238350 0.000000 0.000000 0.000000 -40.697044 6.729575 40.910422 109.140720 52.419042 -129.364138 41.180536 -31.352040 -48.919727 -31.480571 10.386580 -14.209247 -13.008707 -33.638849 -5.466847 -0.000002 -0.000005 0.000000 -0.000002 -0.000000 0.000001 -3.485985 1.851576 32.874442 -8.875865 5.007753 106.188138 0.000000 -0.000000 0.000001 -2.051668 0.230816 37.937111 -6.364964 7.372386 96.576887 -0.000001 -0.000000 -0.000000 2.774039 -3.553475 41.587051 -1.339053 10.439965 83.973153 0.000000 0.000001 0.000003 4.714831 -4.516884 49.238800 -1.408727 11.737784 71.641970 -0.000000 -0.000000 -0.000004 -13.648026 8.207849 4.014438 28.434410 22.683463 1.283476 -24.223739 1.520457 -26.634751 -22.444160 -9.448694 6.822462 -0.000001 -0.000004 -0.000000 -82.355382 -8.585350 -4.784832 69.092869 -30.465017 -1.697635 -11.911367 -0.038837 -1.438462 -8.906594 8.223707 7.077281 -0.000000 0.000000 0.000000 
